<?xml version="1.0" standalone="no"?>
<!DOCTYPE svg PUBLIC "-//W3C//DTD SVG 20010904//EN"
 "http://www.w3.org/TR/2001/REC-SVG-20010904/DTD/svg10.dtd">
<svg version="1.0" xmlns="http://www.w3.org/2000/svg"
 width="512.000000pt" height="512.000000pt" viewBox="0 0 512.000000 512.000000"
 preserveAspectRatio="xMidYMid meet">

<g transform="translate(0.000000,512.000000) scale(0.100000,-0.100000)"
fill="#000000" stroke="none">
<path fill="#ff3b3b" d="M3030 3334 c0 -1401 0 -1406 20 -1393 11 8 224 181 475 384 l454 370
1 1023 0 1022 -475 0 -475 0 0 -1406z"/>
<path fill="#ff3b3b" d="M890 3097 l0 -1173 466 -314 c257 -173 470 -316 475 -318 5 -2 9 626
9 1487 l0 1491 -475 0 -475 0 0 -1173z"/>
<path fill="#fff" d="M1960 2500 l0 -1320 42 -30 c22 -16 45 -30 50 -30 5 0 200 158 434
351 l424 351 0 999 0 999 -475 0 -475 0 0 -1320z"/>
<path fill="#6b85f7" d="M4686 3262 l-338 -157 117 -5 117 -5 -1258 -1045 c-691 -575 -1264
-1045 -1273 -1044 -12 0 -827 572 -1901 1333 -48 34 -60 39 -45 21 95 -121
1828 -2210 1833 -2210 4 0 626 646 1382 1435 l1375 1434 5 -119 5 -119 80 152
c44 83 120 227 168 319 48 93 84 168 80 167 -4 0 -160 -71 -347 -157z"/>
</g>
</svg>
