<svg 
 xmlns="http://www.w3.org/2000/svg"
 xmlns:xlink="http://www.w3.org/1999/xlink"
 width="174px" height="41px">
<path fill-rule="evenodd"  fill="rgb(255, 255, 255)"
 d="M173.330,7.958 L170.641,13.567 C168.983,12.066 167.656,11.403 166.330,11.403 C164.635,11.403 163.641,12.375 163.641,13.921 C163.641,15.378 164.267,16.085 166.735,17.410 C170.714,19.618 172.114,21.782 172.114,25.713 C172.114,30.748 169.314,34.413 164.635,35.385 L164.156,40.111 L160.472,40.111 L160.951,35.473 C158.777,35.120 157.193,34.325 154.614,32.382 L157.377,26.817 C159.551,28.539 160.877,29.158 162.462,29.158 C164.451,29.158 165.777,28.009 165.777,26.287 C165.777,24.962 165.225,24.344 162.941,22.930 C159.993,21.120 159.035,20.236 158.225,18.735 C157.635,17.631 157.304,16.129 157.304,14.495 C157.304,9.946 159.772,6.633 164.046,5.529 L164.488,0.936 L168.172,0.936 L167.730,5.397 C170.051,5.794 171.046,6.280 173.330,7.958 ZM140.063,35.738 C132.069,35.738 126.653,29.732 126.653,20.855 C126.653,11.624 132.400,5.132 140.542,5.132 C147.984,5.132 153.105,10.608 153.400,18.956 C153.400,19.132 153.400,19.353 153.400,19.530 C153.400,29.202 148.021,35.738 140.063,35.738 ZM146.990,19.795 C146.769,15.157 144.153,12.198 140.284,12.198 C136.084,12.198 133.027,15.731 133.027,20.590 C133.027,25.448 135.790,28.672 139.916,28.672 C144.116,28.672 147.027,25.271 147.027,20.325 C147.027,20.148 147.027,19.971 146.990,19.795 ZM115.786,35.164 L109.265,21.959 C108.197,19.883 107.276,17.631 106.244,14.672 L106.244,15.996 C106.244,18.205 106.170,19.751 105.986,21.561 L104.586,35.164 L98.360,35.164 L101.381,5.706 L108.086,5.706 L115.086,19.927 L116.155,22.312 L117.112,24.565 L117.591,25.669 C117.628,23.814 117.702,22.356 117.886,20.634 L119.397,5.706 L125.623,5.706 L122.602,35.164 L115.786,35.164 ZM87.861,35.164 L81.340,21.959 C80.272,19.883 79.351,17.631 78.319,14.672 L78.319,15.996 C78.319,18.205 78.246,19.751 78.061,21.561 L76.661,35.164 L70.435,35.164 L73.456,5.706 L80.161,5.706 L87.161,19.927 L88.230,22.312 L89.188,24.565 L89.667,25.669 C89.704,23.814 89.777,22.356 89.961,20.634 L91.472,5.706 L97.698,5.706 L94.677,35.164 L87.861,35.164 ZM56.032,35.738 C48.037,35.738 42.621,29.732 42.621,20.855 C42.621,11.624 48.368,5.132 56.511,5.132 C63.953,5.132 69.074,10.608 69.368,18.956 C69.368,19.132 69.368,19.353 69.368,19.530 C69.368,29.202 63.989,35.738 56.032,35.738 ZM62.958,19.795 C62.737,15.157 60.121,12.198 56.253,12.198 C52.053,12.198 48.995,15.731 48.995,20.590 C48.995,25.448 51.758,28.672 55.884,28.672 C60.084,28.672 62.995,25.271 62.995,20.325 C62.995,20.148 62.995,19.971 62.958,19.795 ZM33.891,35.164 L28.291,23.460 L27.112,35.164 L20.885,35.164 L23.907,5.706 L31.901,5.706 C35.254,5.706 37.317,6.501 38.717,8.268 C39.896,9.769 40.596,12.198 40.596,14.848 C40.596,17.498 39.933,19.706 38.607,21.385 C37.722,22.533 37.059,23.019 35.364,23.725 L41.112,35.164 L33.891,35.164 ZM30.686,11.624 L29.507,11.624 L28.733,19.176 L29.838,19.176 C32.822,19.176 34.186,17.851 34.186,15.069 C34.186,12.507 33.301,11.624 30.686,11.624 ZM14.403,12.198 C9.871,12.198 6.666,15.776 6.666,20.766 C6.666,25.492 9.466,28.672 13.555,28.672 C15.471,28.672 17.276,28.098 19.192,26.817 L18.418,34.325 C15.729,35.473 14.513,35.738 12.634,35.738 C5.376,35.738 0.292,29.688 0.292,21.120 C0.292,12.154 6.187,5.132 13.703,5.132 C16.355,5.132 18.529,5.838 21.145,7.605 L20.408,14.892 C18.603,13.082 16.650,12.198 14.403,12.198 Z"/>
</svg>