<svg 
 xmlns="http://www.w3.org/2000/svg"
 xmlns:xlink="http://www.w3.org/1999/xlink"
 width="171px" height="27px">
<path fill-rule="evenodd"  fill="rgb(255, 255, 255)"
 d="M167.559,25.930 L161.849,25.930 L162.964,15.694 L154.685,15.694 L153.536,25.930 L147.825,25.930 L150.596,0.921 L156.307,0.921 L155.293,10.182 L163.572,10.182 L164.619,0.921 L170.330,0.921 L167.559,25.930 ZM141.304,5.683 C139.750,5.683 138.770,6.507 138.770,7.857 C138.770,9.057 139.344,9.657 141.642,10.857 C145.359,12.807 146.643,14.569 146.643,17.868 C146.643,22.893 143.061,26.417 138.026,26.417 C135.323,26.417 133.431,25.742 130.423,23.680 L132.992,18.881 C135.019,20.418 136.202,20.943 137.756,20.943 C139.547,20.943 140.763,19.931 140.763,18.393 C140.763,17.306 140.256,16.706 138.128,15.544 C134.107,13.294 132.924,11.682 132.924,8.307 C132.924,3.770 136.438,0.433 141.203,0.433 C143.500,0.433 145.562,1.146 147.758,2.720 L145.257,7.520 C143.737,6.245 142.520,5.683 141.304,5.683 ZM123.361,21.730 L115.319,21.730 L113.596,25.930 L107.243,25.930 L118.428,0.921 L124.848,0.921 L130.288,25.930 L124.308,25.930 L123.361,21.730 ZM121.334,12.019 C120.962,10.107 120.928,9.882 120.827,9.132 C120.793,8.945 120.726,8.645 120.692,8.232 C120.320,9.545 120.016,10.332 119.678,11.194 L117.414,16.781 L122.280,16.781 L121.334,12.019 ZM103.222,6.432 C99.066,6.432 96.126,9.470 96.126,13.707 C96.126,17.719 98.694,20.418 102.445,20.418 C104.202,20.418 105.858,19.931 107.615,18.843 L106.906,25.218 C104.439,26.192 103.324,26.417 101.600,26.417 C94.944,26.417 90.281,21.281 90.281,14.006 C90.281,6.395 95.687,0.433 102.580,0.433 C105.013,0.433 107.007,1.033 109.406,2.533 L108.730,8.720 C107.074,7.182 105.284,6.432 103.222,6.432 ZM74.163,25.930 L68.452,25.930 L69.702,14.794 L63.958,0.921 L70.277,0.921 L71.831,4.933 C72.743,7.332 72.811,7.482 73.048,8.307 C73.115,8.495 73.183,8.795 73.284,9.132 C73.588,8.495 73.892,7.970 74.399,7.145 L78.285,0.921 L85.212,0.921 L75.379,14.981 L74.163,25.930 ZM62.640,14.756 C61.086,16.631 58.383,17.644 54.801,17.644 L52.267,17.644 L51.354,25.930 L45.644,25.930 L48.414,0.921 L55.950,0.921 C58.518,0.921 60.816,1.296 62.505,3.133 C64.195,4.970 64.397,7.220 64.397,8.870 C64.397,10.669 64.161,12.919 62.640,14.756 ZM57.910,6.995 C57.166,6.132 55.950,6.170 55.139,6.170 L53.551,6.170 L52.875,12.394 L54.666,12.394 C55.477,12.394 56.963,12.319 57.842,11.344 C58.484,10.632 58.552,9.695 58.552,9.132 C58.552,8.045 58.247,7.370 57.910,6.995 ZM32.432,26.417 C25.099,26.417 20.132,21.318 20.132,13.781 C20.132,5.945 25.403,0.433 32.871,0.433 C39.697,0.433 44.394,5.083 44.664,12.169 C44.664,12.319 44.664,12.507 44.664,12.657 C44.664,20.868 39.730,26.417 32.432,26.417 ZM38.784,12.882 C38.582,8.945 36.182,6.432 32.634,6.432 C28.782,6.432 25.978,9.432 25.978,13.557 C25.978,17.681 28.512,20.418 32.296,20.418 C36.149,20.418 38.818,17.531 38.818,13.332 C38.818,13.182 38.818,13.032 38.784,12.882 ZM13.847,6.432 C9.691,6.432 6.751,9.470 6.751,13.707 C6.751,17.719 9.319,20.418 13.070,20.418 C14.827,20.418 16.483,19.931 18.240,18.843 L17.530,25.218 C15.063,26.192 13.948,26.417 12.225,26.417 C5.568,26.417 0.905,21.281 0.905,14.006 C0.905,6.395 6.312,0.433 13.205,0.433 C15.638,0.433 17.632,1.033 20.031,2.533 L19.355,8.720 C17.699,7.182 15.908,6.432 13.847,6.432 Z"/>
</svg>