<svg 
 xmlns="http://www.w3.org/2000/svg"
 xmlns:xlink="http://www.w3.org/1999/xlink"
 width="200px" height="58px">
<path fill-rule="evenodd"  fill="rgb(255, 255, 255)"
 d="M161.177,0.267 C161.770,0.272 162.498,0.325 163.049,0.445 C163.611,0.568 164.192,0.468 164.698,0.579 C165.107,0.668 165.657,0.506 165.946,0.712 C165.836,0.889 165.913,1.135 165.857,1.380 C165.727,1.945 165.619,2.626 165.589,3.249 C165.619,3.249 165.649,3.249 165.679,3.249 C165.973,3.433 166.486,3.367 166.838,3.472 C167.683,3.725 168.590,3.938 169.289,4.362 C170.755,5.251 171.881,6.408 172.454,8.190 C172.582,8.589 172.533,8.941 172.632,9.392 C172.748,9.924 172.756,10.893 172.632,11.440 C172.498,12.122 172.365,12.805 172.231,13.487 C170.404,13.487 168.576,13.487 166.748,13.487 C166.777,12.885 166.937,12.306 167.060,11.751 C167.060,11.514 167.060,11.277 167.060,11.039 C167.060,9.405 166.211,8.617 165.055,8.146 C164.346,7.857 163.483,7.790 162.514,7.790 C159.970,7.790 158.268,8.326 157.299,9.882 C157.014,10.339 156.528,11.202 156.719,12.063 C157.254,14.466 159.933,14.489 162.246,15.134 C164.699,15.818 167.116,16.370 168.932,17.672 C169.849,18.328 170.647,19.334 171.027,20.520 C171.496,21.982 171.046,24.240 170.582,25.372 C169.511,27.983 167.622,29.586 165.188,30.847 C164.395,31.259 163.346,31.785 162.291,31.871 C162.296,32.442 162.225,33.055 162.113,33.563 C161.976,34.181 162.053,34.805 161.934,35.388 C161.756,35.388 161.578,35.388 161.400,35.388 C161.135,35.226 160.675,35.373 160.330,35.299 C159.481,35.115 158.131,35.039 157.210,35.031 C157.299,34.141 157.388,33.251 157.477,32.361 C152.685,32.111 149.474,30.405 148.384,26.441 C148.093,25.382 148.113,23.820 148.384,22.746 C148.482,22.357 148.407,21.848 148.607,21.544 C148.890,21.369 149.732,21.500 150.123,21.500 C151.445,21.500 152.767,21.500 154.090,21.500 C154.060,22.123 153.907,22.731 153.778,23.325 C153.714,23.618 153.771,24.125 153.822,24.348 C153.885,24.623 153.831,24.816 153.911,25.061 C154.256,26.109 155.114,26.830 156.095,27.242 C156.603,27.455 157.214,27.515 157.789,27.642 C157.953,27.642 158.116,27.642 158.279,27.642 C158.690,27.729 159.474,27.732 159.884,27.642 C160.484,27.511 160.996,27.613 161.533,27.464 C162.918,27.080 164.001,26.487 164.743,25.461 C165.105,24.960 165.802,23.853 165.545,22.790 C165.148,21.152 163.484,20.847 161.934,20.342 C160.355,19.828 158.524,19.619 156.942,19.096 C155.275,18.545 153.864,17.819 152.619,16.870 C150.969,15.614 150.679,12.380 151.549,10.015 C152.615,7.118 154.555,5.364 157.343,4.184 C158.292,3.783 159.474,3.335 160.731,3.294 C160.798,3.169 160.822,3.073 160.820,2.849 C160.934,2.664 160.852,2.388 160.909,2.137 C161.040,1.561 161.103,0.877 161.177,0.267 ZM23.535,14.111 C22.079,14.111 20.622,14.111 19.166,14.111 C19.214,10.358 18.102,7.811 15.511,6.721 C14.910,6.469 14.199,6.385 13.506,6.232 C13.327,6.232 13.149,6.232 12.971,6.232 C12.228,6.074 10.853,6.187 10.207,6.365 C9.363,6.598 8.557,6.880 7.889,7.300 C6.479,8.187 5.594,9.650 5.037,11.395 C4.859,11.953 4.853,12.588 4.725,13.176 C4.725,13.398 4.725,13.621 4.725,13.843 C4.637,14.256 4.680,14.869 4.680,15.357 C4.680,16.351 4.680,17.345 4.680,18.339 C4.680,20.072 4.490,22.266 4.858,23.725 C5.547,26.453 6.721,28.262 9.138,29.245 C9.705,29.476 10.370,29.548 11.010,29.690 C11.173,29.690 11.336,29.690 11.500,29.690 C12.263,29.853 13.691,29.739 14.353,29.556 C15.111,29.347 15.846,29.091 16.448,28.711 C18.022,27.715 18.647,25.980 19.122,23.859 C19.280,23.152 19.167,22.234 19.166,21.455 C20.622,21.455 22.079,21.455 23.535,21.455 C23.645,27.946 21.290,31.589 16.492,33.162 C15.776,33.397 14.912,33.508 14.085,33.696 C13.639,33.711 13.194,33.726 12.748,33.741 C12.495,33.794 12.020,33.797 11.767,33.741 C11.175,33.609 10.624,33.781 10.074,33.652 C8.835,33.361 7.687,33.171 6.641,32.717 C4.397,31.741 2.452,29.922 1.471,27.687 C1.033,26.689 0.778,25.593 0.490,24.437 C0.461,24.111 0.431,23.785 0.401,23.458 C0.080,22.029 0.268,20.069 0.267,18.428 C0.267,17.271 0.267,16.113 0.267,14.956 C0.267,14.254 0.223,13.504 0.357,12.909 C0.401,12.434 0.446,11.959 0.490,11.484 C0.702,10.637 0.843,9.759 1.159,8.992 C2.127,6.640 3.602,4.950 5.661,3.695 C6.754,3.028 8.095,2.716 9.494,2.359 C9.973,2.237 10.405,2.336 10.920,2.226 C12.506,1.887 14.956,2.269 16.180,2.671 C16.809,2.877 17.353,3.002 17.918,3.249 C18.720,3.601 19.360,4.182 20.013,4.674 C22.479,6.532 23.524,9.764 23.535,14.111 ZM37.843,2.137 C44.927,2.006 49.099,4.820 50.813,10.060 C51.575,12.388 51.348,15.757 51.348,18.784 C51.349,21.732 51.403,24.580 50.546,26.663 C49.202,29.930 46.926,31.972 43.459,33.117 C42.423,33.460 41.284,33.479 40.116,33.741 C39.753,33.822 38.628,33.806 38.333,33.741 C37.828,33.726 37.323,33.711 36.817,33.696 C35.812,33.470 34.786,33.402 33.920,33.117 C29.532,31.676 27.439,29.436 26.209,24.838 C26.179,24.571 26.150,24.304 26.120,24.037 C25.723,22.343 25.897,20.069 25.897,18.072 C25.897,14.658 25.843,11.340 26.833,8.947 C28.100,5.884 30.445,3.883 33.697,2.804 C34.578,2.512 35.532,2.445 36.505,2.226 C36.887,2.140 37.536,2.328 37.843,2.137 ZM54.023,2.760 C57.113,2.760 60.204,2.760 63.294,2.760 C65.115,2.760 67.135,2.621 68.598,3.027 C71.222,3.755 73.173,5.090 74.437,7.167 C75.030,8.140 75.222,9.290 75.507,10.594 C75.507,10.802 75.507,11.009 75.507,11.217 C75.594,11.627 75.596,12.410 75.507,12.820 C75.409,13.272 75.521,13.645 75.418,14.066 C75.167,15.095 74.872,16.006 74.393,16.781 C73.074,18.913 71.302,20.212 68.598,20.965 C67.364,21.310 65.862,21.277 64.319,21.277 C62.358,21.277 60.397,21.277 58.435,21.277 C58.435,25.238 58.435,29.201 58.435,33.162 C56.965,33.162 55.494,33.162 54.023,33.162 C54.023,23.029 54.023,12.893 54.023,2.760 ZM118.698,13.977 C118.773,13.487 118.847,12.998 118.921,12.508 C119.177,11.322 118.416,9.837 117.985,9.259 C116.558,7.342 111.998,7.602 110.007,8.814 C108.593,9.673 107.512,10.953 106.842,12.553 C106.076,14.381 106.025,16.892 105.505,18.962 C105.319,19.699 105.251,20.487 105.059,21.277 C104.929,21.812 104.787,22.647 104.925,23.280 C104.925,23.428 104.925,23.577 104.925,23.725 C105.310,25.358 106.066,26.549 107.466,27.153 C109.084,27.850 111.887,27.671 113.394,27.019 C113.967,26.771 114.477,26.355 114.954,25.995 C115.757,25.390 116.537,24.003 116.916,22.969 C117.081,22.517 117.073,21.597 117.317,21.233 C117.599,21.057 118.442,21.188 118.832,21.188 C120.154,21.188 121.477,21.188 122.799,21.188 C122.778,22.404 122.131,23.968 121.729,24.883 C120.148,28.483 117.539,30.599 113.617,31.871 C112.823,32.129 111.926,32.122 111.076,32.316 C110.883,32.316 110.690,32.316 110.497,32.316 C109.626,32.504 107.831,32.409 107.065,32.227 C106.026,31.980 105.140,31.967 104.257,31.604 C101.922,30.644 100.303,29.101 99.487,26.619 C98.846,24.666 99.222,21.740 99.710,19.942 C99.901,19.237 99.931,18.514 100.111,17.850 C100.171,17.464 100.230,17.078 100.290,16.692 C100.749,14.1000 100.867,13.135 101.493,11.618 C103.085,7.761 105.427,5.547 109.294,3.962 C110.400,3.508 111.661,3.455 112.949,3.160 C113.394,3.146 113.840,3.131 114.286,3.116 C114.989,2.964 116.128,3.053 116.782,3.205 C117.608,3.397 118.328,3.364 119.055,3.606 C121.630,4.459 123.291,5.909 124.136,8.502 C124.485,9.573 124.717,11.322 124.404,12.642 C124.302,13.071 124.403,13.618 124.181,13.932 C123.898,14.108 123.056,13.977 122.665,13.977 C121.343,13.977 120.021,13.977 118.698,13.977 ZM90.617,33.162 C89.102,33.162 87.586,33.162 86.071,33.162 C86.071,29.305 86.071,25.446 86.071,21.589 C85.949,21.221 85.561,20.842 85.358,20.520 C84.811,19.655 84.289,18.786 83.753,17.939 C82.136,15.381 80.643,12.797 79.028,10.238 C78.539,9.463 78.053,8.674 77.557,7.879 C77.374,7.584 77.084,7.306 76.978,6.944 C77.008,6.944 77.037,6.944 77.067,6.944 C77.270,7.070 77.683,6.930 77.959,6.988 C78.478,7.098 79.233,7.037 79.831,7.033 C79.831,7.003 79.831,6.974 79.831,6.944 C79.519,6.630 79.359,6.170 79.117,5.787 C78.667,5.072 78.127,4.370 77.736,3.606 C79.429,3.606 81.123,3.606 82.817,3.606 C83.872,5.312 84.927,7.018 85.982,8.724 C85.848,8.724 85.714,8.724 85.581,8.724 C85.306,8.897 83.635,8.774 83.174,8.769 C83.174,8.799 83.174,8.828 83.174,8.858 C83.613,9.227 84.125,10.409 84.466,10.950 C85.283,12.247 86.142,13.572 86.962,14.867 C87.236,15.299 87.941,16.904 88.478,16.915 C88.931,15.906 89.680,14.983 90.261,14.066 C91.374,12.307 92.451,10.543 93.515,8.769 C92.698,8.769 91.880,8.769 91.063,8.769 C90.988,8.718 90.845,8.722 90.706,8.724 C90.706,8.695 90.706,8.665 90.706,8.635 C91.088,8.316 91.282,7.685 91.553,7.256 C92.054,6.461 92.612,5.646 93.113,4.852 C93.238,4.654 93.706,3.685 93.827,3.606 C95.520,3.606 97.214,3.606 98.908,3.606 C98.908,3.635 98.908,3.665 98.908,3.695 C98.636,3.915 98.520,4.326 98.329,4.629 C97.834,5.413 97.229,6.185 96.813,7.033 C97.437,7.033 98.061,7.033 98.685,7.033 C98.868,6.918 99.452,6.983 99.666,6.944 C99.666,6.988 99.666,7.033 99.666,7.078 C99.269,7.405 99.052,8.056 98.774,8.502 C98.123,9.545 97.480,10.604 96.813,11.662 C95.365,13.959 93.950,16.292 92.489,18.606 C92.029,19.336 91.579,20.084 91.108,20.832 C90.972,21.046 90.700,21.296 90.617,21.544 C90.617,25.416 90.617,29.290 90.617,33.162 ZM143.214,4.095 C143.209,4.933 143.310,5.905 143.481,6.677 C143.675,7.551 143.561,8.549 143.749,9.392 C143.763,9.689 143.778,9.986 143.793,10.282 C144.049,11.426 143.942,12.749 144.194,13.888 C144.239,14.496 144.283,15.105 144.328,15.713 C144.771,17.696 144.559,20.005 144.997,21.989 C145.026,22.449 145.056,22.909 145.086,23.369 C145.501,25.228 145.298,27.342 145.710,29.200 C145.880,29.971 145.695,30.812 145.933,31.515 C144.016,31.515 142.099,31.515 140.183,31.515 C140.004,29.482 139.826,27.449 139.648,25.417 C136.602,25.417 133.556,25.417 130.510,25.417 C130.447,25.929 130.033,26.411 129.842,26.841 C129.348,27.951 128.874,29.039 128.326,30.091 C128.224,30.286 127.788,31.454 127.702,31.515 C125.786,31.515 123.869,31.515 121.952,31.515 C121.952,31.485 121.952,31.456 121.952,31.426 C126.290,22.317 130.630,13.205 134.968,4.095 C137.716,4.095 140.465,4.095 143.214,4.095 ZM177.981,4.095 C179.912,4.095 181.844,4.095 183.775,4.095 C183.785,5.130 183.511,6.161 183.285,7.033 C182.989,8.176 182.911,9.327 182.616,10.416 C182.236,11.822 182.137,13.281 181.770,14.645 C181.642,15.119 181.659,15.594 181.502,16.025 C181.562,16.025 181.621,16.025 181.680,16.025 C182.108,15.729 182.792,15.801 183.374,15.668 C185.824,15.109 189.932,16.403 191.531,15.045 C192.160,14.511 192.087,13.155 192.333,12.241 C192.836,10.371 193.035,8.324 193.537,6.454 C193.698,5.855 193.768,4.529 194.072,4.140 C194.283,4.009 195.289,4.095 195.632,4.095 C196.999,4.095 198.366,4.095 199.733,4.095 C199.693,4.512 199.567,4.965 199.465,5.342 C199.282,6.018 199.235,6.710 199.064,7.345 C198.648,8.885 198.515,10.509 198.128,12.018 C198.098,12.345 198.068,12.671 198.039,12.998 C197.906,13.549 197.845,14.115 197.682,14.689 C197.161,16.527 196.936,18.563 196.434,20.431 C196.345,20.965 196.256,21.500 196.167,22.034 C195.751,23.645 195.612,25.364 195.186,27.019 C194.795,28.537 194.496,30.194 194.161,31.693 C192.304,31.693 190.446,31.693 188.589,31.693 C188.642,30.521 188.892,29.329 189.169,28.310 C189.451,27.269 189.523,26.193 189.793,25.194 C190.094,24.080 190.173,22.928 190.461,21.856 C190.570,21.453 190.553,21.059 190.684,20.698 C190.595,20.698 190.506,20.698 190.417,20.698 C190.083,20.906 188.431,20.833 187.832,20.832 C185.824,20.830 183.440,20.411 182.037,21.277 C179.954,22.563 179.740,25.526 179.051,28.221 C178.793,29.229 178.720,30.255 178.427,31.159 C178.364,31.352 178.398,31.514 178.293,31.649 C178.078,31.782 177.038,31.693 176.688,31.693 C175.292,31.693 173.895,31.693 172.498,31.693 C174.326,22.495 176.154,13.294 177.981,4.095 ZM38.333,6.632 C38.166,6.733 37.851,6.626 37.620,6.677 C37.030,6.807 36.384,6.836 35.837,7.033 C33.592,7.842 32.302,9.136 31.424,11.306 C30.741,12.995 30.978,15.735 30.978,18.028 C30.978,19.080 30.819,20.555 31.023,21.500 C31.158,22.123 30.975,22.709 31.112,23.280 C31.786,26.082 32.805,27.593 35.257,28.622 C36.190,29.013 37.265,29.245 38.600,29.245 C38.868,29.245 39.135,29.245 39.403,29.245 C40.294,29.051 41.179,29.023 41.943,28.711 C43.826,27.942 45.011,26.589 45.777,24.705 C46.436,23.082 46.222,20.474 46.222,18.250 C46.222,17.212 46.222,16.173 46.222,15.134 C46.222,14.620 46.274,13.970 46.178,13.532 C46.148,13.176 46.118,12.820 46.089,12.464 C45.151,8.742 42.964,6.635 38.333,6.632 ZM58.435,6.810 C58.435,10.267 58.435,13.725 58.435,17.182 C60.293,17.182 62.150,17.182 64.007,17.182 C65.082,17.182 66.273,17.286 67.172,17.048 C68.216,16.772 69.015,16.361 69.757,15.802 C70.435,15.291 70.813,14.304 71.050,13.354 C71.065,13.087 71.079,12.820 71.094,12.553 C71.199,12.061 71.168,11.077 71.050,10.594 C70.587,8.709 69.479,7.648 67.707,7.078 C66.705,6.755 65.396,6.810 64.096,6.810 C62.210,6.810 60.322,6.810 58.435,6.810 ZM139.158,20.209 C138.831,16.515 138.504,12.819 138.177,9.125 C138.162,9.125 138.147,9.125 138.132,9.125 C138.132,9.140 138.132,9.155 138.132,9.170 C137.849,9.489 137.735,10.004 137.553,10.416 C137.162,11.298 136.710,12.171 136.305,13.087 C135.617,14.643 134.821,16.170 134.121,17.761 C133.774,18.549 133.195,19.348 132.962,20.209 C135.027,20.209 137.093,20.209 139.158,20.209 ZM57.767,49.186 C57.113,49.186 56.459,49.186 55.806,49.186 C55.828,47.620 55.519,46.758 54.379,46.382 C52.785,45.856 50.193,46.511 50.724,48.474 C51.085,49.806 52.776,49.834 54.112,50.210 C56.256,50.814 58.343,51.571 58.034,54.483 C57.989,54.908 57.829,55.413 57.633,55.730 C56.510,57.547 53.337,58.341 50.813,57.243 C49.240,56.559 48.438,55.138 48.451,52.837 C49.105,52.837 49.759,52.837 50.412,52.837 C50.385,54.677 51.004,55.533 52.418,55.908 C52.769,56.001 53.300,56.023 53.622,55.952 C53.874,55.938 54.127,55.923 54.379,55.908 C55.244,55.676 55.783,55.263 56.029,54.394 C56.068,54.255 56.158,54.013 56.118,53.816 C55.796,52.236 54.300,52.228 52.819,51.813 C50.780,51.241 49.310,50.858 48.808,48.697 C48.728,48.354 48.667,47.899 48.763,47.495 C48.867,47.058 48.994,46.593 49.209,46.249 C50.281,44.530 53.471,43.973 55.717,45.002 C57.197,45.681 57.782,46.976 57.767,49.186 ZM60.932,44.735 C62.770,44.694 62.869,46.937 61.333,47.317 C60.494,47.524 59.566,46.606 59.817,45.715 C59.926,45.328 60.225,44.969 60.575,44.824 C60.695,44.774 60.836,44.795 60.932,44.735 ZM87.230,44.735 C89.088,44.690 89.190,46.954 87.631,47.317 C86.626,47.551 85.817,46.397 86.205,45.492 C86.430,44.966 86.801,45.020 87.230,44.735 ZM107.243,46.560 C107.243,47.777 107.243,48.994 107.243,50.210 C109.041,50.210 110.839,50.210 112.637,50.210 C112.637,50.804 112.637,51.397 112.637,51.991 C110.839,51.991 109.041,51.991 107.243,51.991 C107.243,53.816 107.243,55.641 107.243,57.466 C106.575,57.466 105.906,57.466 105.237,57.466 C105.237,53.238 105.237,49.008 105.237,44.780 C105.796,44.596 107.011,44.735 107.689,44.735 C109.486,44.735 111.285,44.735 113.082,44.735 C113.233,45.185 113.131,45.978 113.127,46.516 C112.648,46.673 111.822,46.560 111.255,46.560 C109.918,46.560 108.580,46.560 107.243,46.560 ZM84.689,55.908 C84.689,56.427 84.689,56.947 84.689,57.466 C83.643,57.480 82.444,57.583 82.015,56.976 C81.880,56.786 81.922,56.475 81.792,56.264 C81.729,56.221 81.646,56.221 81.524,56.219 C81.225,57.328 79.350,58.079 77.780,57.644 C76.551,57.303 75.714,56.691 75.418,55.418 C75.243,54.667 75.529,53.879 75.774,53.504 C76.835,51.886 78.882,52.100 81.524,52.124 C81.550,50.937 81.354,50.271 80.544,49.943 C80.304,49.846 80.017,49.854 79.697,49.854 C78.493,49.853 77.583,50.377 77.513,51.457 C77.253,51.431 75.807,50.971 75.730,50.833 C75.870,50.650 75.874,50.370 75.997,50.166 C76.269,49.715 76.677,49.208 77.112,48.919 C78.909,47.728 81.966,48.180 82.951,49.765 C83.764,51.075 83.235,53.787 83.441,55.685 C83.579,55.777 83.571,55.839 83.798,55.863 C83.961,55.970 84.441,55.914 84.689,55.908 ZM90.573,54.617 C91.034,54.592 91.480,54.432 91.865,54.305 C91.998,54.262 92.292,54.242 92.311,54.261 C92.407,54.404 92.375,54.564 92.445,54.751 C92.640,55.272 93.053,55.786 93.559,55.997 C94.906,56.558 96.954,56.179 96.546,54.483 C96.304,54.331 96.124,54.114 95.832,53.994 C95.334,53.789 94.802,53.830 94.228,53.682 C93.118,53.396 91.914,53.114 91.331,52.302 C91.060,51.926 91.082,51.589 90.974,51.012 C90.913,50.687 91.018,50.111 91.152,49.810 C91.615,48.775 93.586,47.865 95.342,48.296 C96.671,48.623 97.968,49.348 98.150,50.789 C97.571,50.952 96.991,51.115 96.412,51.279 C96.222,50.289 95.595,49.810 94.406,49.810 C94.064,49.810 93.775,49.799 93.515,49.899 C93.153,50.037 93.038,50.309 92.801,50.566 C92.821,52.182 94.045,51.836 95.298,52.169 C96.516,52.492 97.872,52.784 98.329,53.860 C98.435,54.111 98.394,54.309 98.462,54.617 C98.530,54.921 98.512,55.373 98.418,55.685 C97.895,57.409 95.291,58.234 93.069,57.510 C91.768,57.087 90.746,56.160 90.573,54.617 ZM118.654,48.252 C121.507,48.215 122.999,49.336 123.646,51.501 C123.783,51.957 123.976,53.097 123.824,53.771 C123.728,54.200 123.677,54.674 123.512,55.062 C122.889,56.535 121.715,57.296 119.991,57.688 C119.244,57.858 118.281,57.692 117.718,57.510 C116.134,57.000 115.189,56.144 114.687,54.573 C114.566,54.194 114.647,53.855 114.553,53.415 C114.477,53.058 114.463,52.474 114.553,52.080 C114.644,51.681 114.711,51.244 114.865,50.878 C115.310,49.824 116.203,48.998 117.272,48.563 C117.589,48.434 118.413,48.400 118.654,48.252 ZM141.208,53.504 C138.920,53.504 136.632,53.504 134.344,53.504 C134.329,55.298 136.224,56.715 138.132,55.908 C138.505,55.750 138.892,55.377 139.113,55.062 C139.236,54.887 139.276,54.632 139.470,54.528 C139.762,54.787 140.845,55.072 140.940,55.418 C140.736,55.634 140.629,55.934 140.450,56.175 C139.932,56.875 139.096,57.393 138.132,57.644 C137.689,57.759 136.983,57.788 136.528,57.688 C136.135,57.602 135.842,57.665 135.503,57.555 C133.984,57.062 133.047,56.052 132.561,54.528 C132.256,53.575 132.366,51.815 132.694,51.012 C133.344,49.425 135.221,47.709 137.731,48.341 C138.207,48.461 138.607,48.480 138.979,48.697 C140.553,49.612 141.224,50.963 141.208,53.504 ZM73.323,57.466 C72.684,57.466 72.045,57.466 71.406,57.466 C71.406,56.056 71.406,54.647 71.406,53.237 C71.406,52.528 71.489,51.667 71.273,51.145 C71.005,50.502 70.457,50.159 69.713,49.988 C68.946,49.811 68.218,50.136 67.840,50.388 C67.423,50.667 67.107,51.017 66.904,51.501 C66.650,52.110 66.682,52.979 66.682,53.816 C66.682,55.032 66.682,56.249 66.682,57.466 C66.058,57.466 65.433,57.466 64.809,57.466 C64.809,54.484 64.809,51.501 64.809,48.519 C65.433,48.519 66.058,48.519 66.682,48.519 C66.682,48.964 66.682,49.409 66.682,49.854 C66.771,49.854 66.860,49.854 66.949,49.854 C67.055,49.469 67.373,49.219 67.662,49.008 C68.983,48.047 70.890,48.227 72.119,49.142 C72.651,49.537 73.042,50.331 73.234,51.056 C73.405,51.705 73.323,52.559 73.323,53.326 C73.323,54.706 73.323,56.086 73.323,57.466 ZM131.268,48.474 C131.268,49.038 131.268,49.602 131.268,50.166 C130.058,50.155 128.917,50.146 128.415,50.833 C128.001,51.402 128.014,52.281 128.014,53.282 C128.014,54.676 128.014,56.071 128.014,57.466 C127.390,57.466 126.766,57.466 126.142,57.466 C126.142,54.484 126.142,51.501 126.142,48.519 C126.766,48.519 127.390,48.519 128.014,48.519 C128.014,48.860 128.014,49.201 128.014,49.543 C128.103,49.543 128.193,49.543 128.282,49.543 C128.724,48.484 129.744,48.459 131.268,48.474 ZM60.174,48.519 C60.798,48.519 61.422,48.519 62.046,48.519 C62.046,51.501 62.046,54.484 62.046,57.466 C61.422,57.466 60.798,57.466 60.174,57.466 C60.174,54.484 60.174,51.501 60.174,48.519 ZM86.472,48.519 C87.096,48.519 87.720,48.519 88.344,48.519 C88.344,51.501 88.344,54.484 88.344,57.466 C87.720,57.466 87.096,57.466 86.472,57.466 C86.472,54.484 86.472,51.501 86.472,48.519 ZM142.189,48.519 C142.931,48.519 143.674,48.519 144.417,48.519 C144.907,49.378 145.635,50.124 146.200,50.922 C146.426,51.241 146.505,51.718 147.047,51.724 C147.136,51.454 147.385,51.267 147.537,51.056 C147.938,50.500 148.348,49.955 148.741,49.409 C148.841,49.270 149.232,48.576 149.320,48.519 C150.078,48.519 150.836,48.519 151.593,48.519 C151.593,48.534 151.593,48.548 151.593,48.563 C151.251,48.808 151.042,49.290 150.791,49.632 C150.244,50.377 149.646,51.094 149.097,51.857 C148.943,52.072 148.245,52.783 148.295,52.970 C148.440,53.402 148.888,53.739 149.142,54.083 C149.646,54.767 150.110,55.445 150.613,56.130 C150.937,56.571 151.376,56.965 151.638,57.466 C150.880,57.466 150.123,57.466 149.365,57.466 C149.265,57.139 148.965,56.918 148.785,56.665 C148.369,56.077 147.937,55.509 147.537,54.929 C147.332,54.630 147.235,54.180 146.735,54.172 C145.948,55.270 145.160,56.368 144.373,57.466 C143.630,57.466 142.887,57.466 142.144,57.466 C142.144,57.436 142.144,57.406 142.144,57.377 C142.535,57.096 142.798,56.524 143.080,56.130 C143.589,55.420 144.216,54.750 144.729,54.038 C144.872,53.841 145.533,52.955 145.487,52.926 C145.324,52.438 144.794,52.033 144.506,51.635 C143.748,50.584 142.887,49.599 142.189,48.519 ZM118.743,49.943 C118.549,50.064 118.247,50.030 118.030,50.121 C117.356,50.406 116.812,51.020 116.559,51.724 C116.428,52.087 116.425,52.504 116.425,52.970 C116.425,54.923 117.213,55.638 118.832,55.997 C119.097,56.056 119.519,56.070 119.813,55.997 C121.086,55.680 122.300,54.388 121.908,52.614 C121.814,52.191 121.874,51.887 121.729,51.546 C121.262,50.440 120.363,49.922 118.743,49.943 ZM139.291,52.080 C139.277,50.705 138.299,49.944 136.884,49.943 C136.617,49.958 136.349,49.973 136.082,49.988 C135.095,50.287 134.550,50.990 134.344,52.080 C135.993,52.080 137.642,52.080 139.291,52.080 ZM81.524,53.593 C79.840,53.560 77.706,53.232 77.335,54.573 C77.270,54.806 77.284,55.158 77.379,55.374 C77.676,56.045 78.901,56.383 79.875,56.086 C80.932,55.763 81.552,55.021 81.524,53.593 Z"/>
</svg>