<svg 
 xmlns="http://www.w3.org/2000/svg"
 xmlns:xlink="http://www.w3.org/1999/xlink"
 width="192" height="192"  viewBox="0 0 128 256">
<path fill-rule="evenodd"
 d="M5.177,0.268 C12.063,0.268 18.951,0.268 25.837,0.268 C29.183,0.268 33.252,-0.167 36.316,0.417 C36.525,1.255 37.119,1.742 37.514,2.364 C38.601,4.075 39.617,5.794 40.658,7.454 C44.199,13.102 47.640,18.777 51.137,24.370 C52.308,26.243 53.440,28.103 54.580,29.910 C54.832,30.308 55.616,31.704 55.479,31.856 C54.530,32.446 51.699,32.005 50.389,32.005 C46.387,32.005 42.213,32.032 38.262,32.005 C38.262,32.055 38.262,32.105 38.262,32.155 C39.191,33.109 39.627,34.437 40.358,35.598 C42.308,38.695 44.206,41.869 46.197,45.030 C51.318,53.163 56.527,61.423 61.616,69.582 C63.592,72.748 65.516,75.905 67.455,79.013 C68.330,80.416 68.385,82.179 70.749,82.157 C81.077,65.441 91.409,48.721 101.738,32.005 C101.139,32.005 100.540,32.005 99.941,32.005 C99.186,32.483 96.977,32.155 95.899,32.155 C93.454,32.105 91.008,32.055 88.564,32.005 C87.255,32.005 85.418,32.209 84.372,31.856 C84.422,31.706 84.472,31.556 84.521,31.407 C85.005,30.999 85.069,30.467 85.420,29.910 C86.713,27.856 87.978,25.740 89.312,23.622 C92.557,18.468 95.942,13.206 99.193,8.052 C100.278,6.332 101.290,4.620 102.336,2.962 C102.835,2.174 103.145,0.840 103.983,0.417 C104.685,-0.017 110.944,0.268 112.367,0.268 C119.851,0.268 127.338,0.268 134.823,0.268 C134.560,1.846 131.686,5.426 130.781,6.855 C128.827,9.938 127.189,13.043 125.241,16.137 C124.131,17.901 122.769,19.618 121.798,21.526 C124.443,21.526 127.088,21.526 129.733,21.526 C130.427,21.094 132.188,21.431 133.176,21.376 C135.181,21.265 137.263,21.066 139.464,21.077 C139.464,21.177 139.464,21.276 139.464,21.376 C138.737,21.977 138.485,22.950 137.966,23.772 C136.825,25.582 135.701,27.443 134.523,29.311 C130.249,36.088 126.106,42.978 121.798,49.820 C113.306,63.310 105.038,76.992 96.498,90.540 C93.542,95.231 90.660,100.009 87.665,104.762 C86.777,106.173 85.899,107.626 84.971,109.104 C84.722,109.499 84.096,110.017 83.923,110.451 C83.923,134.152 83.923,157.861 83.923,181.562 C81.950,182.211 77.627,181.711 75.240,181.711 C68.903,181.711 62.564,181.711 56.227,181.711 C55.646,179.942 56.077,176.901 56.077,174.825 C56.077,169.885 56.077,164.944 56.077,160.004 C56.077,143.488 56.077,126.967 56.077,110.451 C55.480,109.947 55.312,109.190 54.880,108.505 C53.741,106.700 52.613,104.832 51.436,102.966 C47.570,96.835 43.812,90.594 39.909,84.402 C30.1000,70.271 22.357,55.932 13.411,41.736 C10.456,37.047 7.570,32.270 4.579,27.514 C3.330,25.529 1.308,23.379 0.536,21.077 C1.485,21.077 2.433,21.077 3.381,21.077 C4.064,21.500 5.447,21.029 6.375,21.227 C9.704,21.936 14.425,21.539 18.202,21.526 C18.202,21.476 18.202,21.426 18.202,21.376 C16.979,20.120 16.312,18.250 15.357,16.735 C13.308,13.485 11.304,10.163 9.219,6.855 C8.259,5.331 5.511,1.974 5.177,0.268 Z"/>
</svg>